# xmcd
#
# Track frame offsets:
#	150
#	16505
#	42185
#	59760
#	84089
#	110968
#	127977
#	147569
#	170435
#	187843
#	210140
#	236038
#	251500
#	276343
#	293107
#	317271
#	337669
#
# Disc length: 4811 seconds
#
# Revision: 0
# Processed by: cddbd v1.5.2PL0 Copyright (c) Steve Scherf et al.
# Submitted via: EasyCDDAExtractor 8.2.3.1
#
DISCID=e512c911
DTITLE=Various Artist - The Hard Blues Masters vol.6
DYEAR=2005
DGENRE=Blues
TTITLE0=GOTTHARD - Lay Down the Law
TTITLE1=INNES SIBUN - Lonely Nights
TTITLE2=WES JEANS - Victim Of the Game
TTITLE3=CRY OF LOVE - Fire On the Dry Grass
TTITLE4=LEO LIONS KICK - Feel Good About It
TTITLE5=HANK DAVISON - Prisoner Blues
TTITLE6=MICHAEL KATON - Wound Up
TTITLE7=The HAMSTERS - Come Yo Poppa
TTITLE8=CUB KODA - Pusherman Of Love
TTITLE9=JAY HOOKS - It Life Don't Kill You (Lovin' Will)
TTITLE10=HOWLING IGUANAS - When Life Has It's Way
TTITLE11=CRY OF LOVE - Gotta Love Me
TTITLE12=DAVE MENIKETTI - Lay Me Down
TTITLE13=ERIC GALES - Black Day
TTITLE14=AEROSMITH - You Gotta Move
TTITLE15=SONNY LANDRETH - Falling For You
TTITLE16=WALTER TROUT - Empty Eyes
EXTD=
EXTT0=
EXTT1=
EXTT2=
EXTT3=
EXTT4=
EXTT5=
EXTT6=
EXTT7=
EXTT8=
EXTT9=
EXTT10=
EXTT11=
EXTT12=
EXTT13=
EXTT14=
EXTT15=
EXTT16=
PLAYORDER=
